<svg xmlns="http://www.w3.org/2000/svg" viewBox="0 0 760 360" font-family="'Segoe UI', system-ui, -apple-system, sans-serif" role="img" aria-label="The lifecycle window flows through three main phases in the same Electron window. Splash on the left shows the app name and an animated pulse bar while the runtime is starting. Preloader in the middle shows a status message and a progress bar driven by runtime events. Shiny app on the right is the loaded Shiny content. Below the main flow, three smaller cards label the optional automatic states the runtime may insert: dependency confirmation when packages are missing, runtime version picker when several versions are installed, and an error state with retry and quit buttons.">
  <defs>
    <filter id="lc-shadow">
      <feDropShadow dx="0" dy="1" stdDeviation="3" flood-opacity="0.07"/>
    </filter>
    <marker id="lc-arrow" viewBox="0 0 10 10" refX="9" refY="5" markerWidth="7" markerHeight="7" orient="auto">
      <path d="M0,0 L10,5 L0,10 z" fill="#94a3b8"/>
    </marker>
  </defs>

  <!-- Column headers -->
  <text x="125" y="20" text-anchor="middle" font-size="10" font-weight="600" fill="#94a3b8" letter-spacing="1.2">SPLASH</text>
  <text x="380" y="20" text-anchor="middle" font-size="10" font-weight="600" fill="#94a3b8" letter-spacing="1.2">PRELOADER</text>
  <text x="635" y="20" text-anchor="middle" font-size="10" font-weight="600" fill="#94a3b8" letter-spacing="1.2">SHINY APP</text>

  <!-- Card 1: Splash -->
  <g transform="translate(20,34)" filter="url(#lc-shadow)">
    <rect width="210" height="200" rx="8" fill="#fff" stroke="#e2e8f0" stroke-width="1.5"/>
    <rect width="210" height="3" rx="1.5" fill="#f59e0b"/>

    <!-- Window chrome -->
    <rect x="0" y="3" width="210" height="14" fill="#f8fafc"/>
    <circle cx="10" cy="13" r="2" fill="#f87171"/>
    <circle cx="17" cy="13" r="2" fill="#fbbf24"/>
    <circle cx="24" cy="13" r="2" fill="#34d399"/>

    <!-- Logo -->
    <g transform="translate(67,42)">
      <rect width="76" height="56" rx="6" fill="#fffbeb" stroke="#fde68a" stroke-width="0.75"/>
      <circle cx="38" cy="28" r="14" fill="#f59e0b"/>
      <text x="38" y="32" text-anchor="middle" font-size="11" font-weight="700" fill="#fff">M</text>
    </g>
    <text x="105" y="124" text-anchor="middle" font-size="11" font-weight="600" fill="#1e293b">My Dashboard</text>
    <text x="105" y="142" text-anchor="middle" font-size="9" fill="#94a3b8">Loading dashboard...</text>

    <!-- Pulse bar -->
    <rect x="85" y="156" width="40" height="3" rx="1.5" fill="#f59e0b"/>

    <text x="105" y="184" text-anchor="middle" font-size="8" fill="#94a3b8">app is starting</text>
  </g>

  <!-- Arrow 1 -->
  <path d="M 234 134 L 268 134" stroke="#cbd5e1" stroke-width="1.5" stroke-dasharray="4,3" fill="none" marker-end="url(#lc-arrow)"/>

  <!-- Card 2: Preloader -->
  <g transform="translate(275,34)" filter="url(#lc-shadow)">
    <rect width="210" height="200" rx="8" fill="#fff" stroke="#e2e8f0" stroke-width="1.5"/>
    <rect width="210" height="3" rx="1.5" fill="#3b82f6"/>

    <!-- Window chrome -->
    <rect x="0" y="3" width="210" height="14" fill="#f8fafc"/>
    <circle cx="10" cy="13" r="2" fill="#f87171"/>
    <circle cx="17" cy="13" r="2" fill="#fbbf24"/>
    <circle cx="24" cy="13" r="2" fill="#34d399"/>

    <!-- Headline -->
    <text x="105" y="50" text-anchor="middle" font-size="10" fill="#64748b">Starting your dashboard...</text>

    <!-- Phase detail -->
    <text x="105" y="78" text-anchor="middle" font-size="11" font-weight="500" fill="#1e293b">Found Rscript</text>

    <!-- Progress bar -->
    <rect x="35" y="98" width="140" height="6" rx="3" fill="#e2e8f0"/>
    <rect x="35" y="98" width="56" height="6" rx="3" fill="#3b82f6"/>
    <text x="105" y="122" text-anchor="middle" font-size="9" fill="#64748b">40%</text>

    <text x="105" y="170" text-anchor="middle" font-size="8" fill="#94a3b8">phase detail comes from</text>
    <text x="105" y="183" text-anchor="middle" font-size="8" fill="#94a3b8">runtime status events</text>
  </g>

  <!-- Arrow 2 -->
  <path d="M 489 134 L 523 134" stroke="#cbd5e1" stroke-width="1.5" stroke-dasharray="4,3" fill="none" marker-end="url(#lc-arrow)"/>

  <!-- Card 3: Shiny app -->
  <g transform="translate(530,34)" filter="url(#lc-shadow)">
    <rect width="210" height="200" rx="8" fill="#fff" stroke="#e2e8f0" stroke-width="1.5"/>
    <rect width="210" height="3" rx="1.5" fill="#16a34a"/>

    <!-- Window chrome -->
    <rect x="0" y="3" width="210" height="14" fill="#f8fafc"/>
    <circle cx="10" cy="13" r="2" fill="#f87171"/>
    <circle cx="17" cy="13" r="2" fill="#fbbf24"/>
    <circle cx="24" cy="13" r="2" fill="#34d399"/>

    <!-- App content sketch -->
    <g transform="translate(15,28)">
      <rect width="180" height="160" rx="4" fill="#f0fdf4" stroke="#bbf7d0" stroke-width="1"/>
      <!-- header -->
      <rect x="10" y="10" width="64" height="8" rx="2" fill="#86efac"/>
      <rect x="10" y="22" width="100" height="3" rx="1" fill="#bbf7d0"/>

      <!-- sidebar -->
      <rect x="10" y="36" width="50" height="116" rx="3" fill="#fff" stroke="#bbf7d0" stroke-width="0.5"/>
      <rect x="14" y="44" width="40" height="3" rx="1" fill="#86efac"/>
      <rect x="14" y="52" width="32" height="3" rx="1" fill="#bbf7d0"/>
      <rect x="14" y="60" width="36" height="3" rx="1" fill="#bbf7d0"/>
      <rect x="14" y="68" width="28" height="3" rx="1" fill="#bbf7d0"/>

      <!-- chart -->
      <rect x="68" y="36" width="100" height="58" rx="3" fill="#fff" stroke="#bbf7d0" stroke-width="0.5"/>
      <polyline points="74,86 82,72 90,80 100,60 110,68 120,52 130,58 140,46 150,54 160,42" stroke="#16a34a" stroke-width="1.5" fill="none"/>

      <!-- table rows -->
      <rect x="68" y="100" width="100" height="3" rx="1" fill="#bbf7d0"/>
      <rect x="68" y="108" width="84" height="3" rx="1" fill="#bbf7d0"/>
      <rect x="68" y="116" width="92" height="3" rx="1" fill="#bbf7d0"/>
      <rect x="68" y="124" width="76" height="3" rx="1" fill="#bbf7d0"/>
      <rect x="68" y="132" width="88" height="3" rx="1" fill="#bbf7d0"/>
      <rect x="68" y="140" width="80" height="3" rx="1" fill="#bbf7d0"/>
    </g>
  </g>

  <!-- Caption -->
  <text x="380" y="252" text-anchor="middle" font-size="9" fill="#94a3b8">Same Electron window throughout. The user never sees a hand-off.</text>

  <!-- Branch label -->
  <text x="380" y="282" text-anchor="middle" font-size="10" font-weight="600" fill="#475569">Other states the runtime may insert automatically</text>

  <!-- Branch pills -->
  <g transform="translate(20,298)">
    <rect width="210" height="48" rx="6" fill="#f8fafc" stroke="#e2e8f0" stroke-width="1"/>
    <text x="105" y="22" text-anchor="middle" font-size="11" font-weight="500" fill="#475569">Dependency confirmation</text>
    <text x="105" y="38" text-anchor="middle" font-size="9" fill="#94a3b8">missing R or Python packages</text>
  </g>
  <g transform="translate(275,298)">
    <rect width="210" height="48" rx="6" fill="#f8fafc" stroke="#e2e8f0" stroke-width="1"/>
    <text x="105" y="22" text-anchor="middle" font-size="11" font-weight="500" fill="#475569">Runtime version picker</text>
    <text x="105" y="38" text-anchor="middle" font-size="9" fill="#94a3b8">several R or Python versions found</text>
  </g>
  <g transform="translate(530,298)">
    <rect width="210" height="48" rx="6" fill="#fef2f2" stroke="#fecaca" stroke-width="1"/>
    <text x="105" y="22" text-anchor="middle" font-size="11" font-weight="500" fill="#991b1b">Error</text>
    <text x="105" y="38" text-anchor="middle" font-size="9" fill="#fca5a5">retry or quit</text>
  </g>
</svg>
