<svg xmlns="http://www.w3.org/2000/svg" viewBox="0 0 780 260" font-family="'Segoe UI', system-ui, -apple-system, sans-serif" role="img" aria-label="Multi-app routing: the launcher hands off to one backend at a time, returning to the launcher when the user picks a different app">
  <defs>
    <filter id="mr-shadow">
      <feDropShadow dx="0" dy="1" stdDeviation="3" flood-opacity="0.07"/>
    </filter>
  </defs>

  <!-- Launcher -->
  <g transform="translate(40,70)" filter="url(#mr-shadow)">
    <rect width="220" height="124" rx="8" fill="#fff" stroke="#e2e8f0" stroke-width="1.5"/>
    <rect width="220" height="3" rx="1.5" fill="#8b5cf6"/>
    <text x="110" y="30" text-anchor="middle" font-size="14" font-weight="600" fill="#1e293b">Launcher</text>
    <text x="110" y="48" text-anchor="middle" font-size="11" fill="#64748b">card per app</text>

    <!-- three cards -->
    <g transform="translate(16,62)">
      <rect width="58" height="46" rx="5" fill="#f8fafc" stroke="#e2e8f0" stroke-width="1"/>
      <circle cx="29" cy="18" r="7" fill="#3b82f6" opacity="0.25"/>
      <rect x="14" y="32" width="30" height="3" rx="1" fill="#cbd5e1"/>
      <rect x="18" y="38" width="22" height="2" rx="1" fill="#e2e8f0"/>
    </g>
    <g transform="translate(80,62)">
      <rect width="58" height="46" rx="5" fill="#f8fafc" stroke="#e2e8f0" stroke-width="1"/>
      <circle cx="29" cy="18" r="7" fill="#10b981" opacity="0.25"/>
      <rect x="14" y="32" width="30" height="3" rx="1" fill="#cbd5e1"/>
      <rect x="18" y="38" width="22" height="2" rx="1" fill="#e2e8f0"/>
    </g>
    <g transform="translate(144,62)">
      <rect width="58" height="46" rx="5" fill="#f8fafc" stroke="#e2e8f0" stroke-width="1"/>
      <circle cx="29" cy="18" r="7" fill="#f59e0b" opacity="0.25"/>
      <rect x="14" y="32" width="30" height="3" rx="1" fill="#cbd5e1"/>
      <rect x="18" y="38" width="22" height="2" rx="1" fill="#e2e8f0"/>
    </g>
  </g>

  <!-- Forward arrow -->
  <g transform="translate(275,118)">
    <line x1="0" y1="0" x2="90" y2="0" stroke="#cbd5e1" stroke-width="1.5" stroke-dasharray="4,3"/>
    <polygon points="90,-4 98,0 90,4" fill="#cbd5e1"/>
    <text x="49" y="-10" text-anchor="middle" font-size="11" fill="#64748b">pick an app</text>
    <text x="49" y="20" text-anchor="middle" font-size="10" fill="#94a3b8">start backend</text>
  </g>

  <!-- Return arrow -->
  <g transform="translate(275,158)">
    <line x1="98" y1="0" x2="8" y2="0" stroke="#cbd5e1" stroke-width="1.5" stroke-dasharray="4,3"/>
    <polygon points="8,-4 0,0 8,4" fill="#cbd5e1"/>
    <text x="49" y="20" text-anchor="middle" font-size="10" fill="#94a3b8">Apps menu: Back</text>
  </g>

  <!-- Active backend -->
  <g transform="translate(390,42)" filter="url(#mr-shadow)">
    <rect width="210" height="180" rx="8" fill="#fff" stroke="#e2e8f0" stroke-width="1.5"/>
    <rect width="210" height="3" rx="1.5" fill="#3b82f6"/>
    <text x="105" y="30" text-anchor="middle" font-size="14" font-weight="600" fill="#1e293b">Active Backend</text>
    <text x="105" y="50" text-anchor="middle" font-size="11" fill="#64748b">one R or Python process</text>

    <!-- window frame -->
    <g transform="translate(24,66)">
      <rect width="162" height="92" rx="5" fill="#fff" stroke="#e2e8f0" stroke-width="1"/>
      <rect width="162" height="14" rx="5" fill="#f8fafc"/>
      <circle cx="10" cy="7" r="2" fill="#f87171"/>
      <circle cx="17" cy="7" r="2" fill="#fbbf24"/>
      <circle cx="24" cy="7" r="2" fill="#34d399"/>
      <rect x="10" y="24" width="60" height="4" rx="2" fill="#e2e8f0"/>
      <rect x="10" y="34" width="128" height="3" rx="1.5" fill="#e2e8f0"/>
      <rect x="10" y="42" width="92" height="3" rx="1.5" fill="#e2e8f0"/>
      <rect x="10" y="54" width="50" height="10" rx="3" fill="#3b82f6" opacity="0.2"/>
      <rect x="10" y="70" width="128" height="3" rx="1.5" fill="#e2e8f0"/>
      <rect x="10" y="78" width="72" height="3" rx="1.5" fill="#e2e8f0"/>
    </g>
  </g>

  <!-- Apps registry / manifest -->
  <g transform="translate(628,70)" filter="url(#mr-shadow)">
    <rect width="132" height="124" rx="8" fill="#fff" stroke="#e2e8f0" stroke-width="1.5"/>
    <rect width="132" height="3" rx="1.5" fill="#10b981"/>
    <text x="66" y="30" text-anchor="middle" font-size="13" font-weight="600" fill="#1e293b">apps manifest</text>
    <text x="66" y="48" text-anchor="middle" font-size="10" fill="#94a3b8">from _shinyelectron.yml</text>
    <g font-size="11" fill="#1e293b">
      <text x="14" y="74">id: dashboard</text>
      <text x="14" y="92">id: data-explorer</text>
      <text x="14" y="110">id: about</text>
    </g>
  </g>

  <g stroke="#cbd5e1" stroke-width="1.5" fill="none" stroke-dasharray="4,3">
    <path d="M600,128 L628,128"/>
  </g>
</svg>
