<svg xmlns="http://www.w3.org/2000/svg" viewBox="0 0 760 220" font-family="'Segoe UI', system-ui, -apple-system, sans-serif" role="img" aria-label="Node.js resolution order: shinyelectron first checks its local cache, then the system PATH, and reports not found only if neither exists">
  <defs>
    <filter id="shadow-nr">
      <feDropShadow dx="0" dy="1" stdDeviation="3" flood-opacity="0.07"/>
    </filter>
  </defs>

  <!-- Caller -->
  <g transform="translate(20,76)" filter="url(#shadow-nr)">
    <rect width="150" height="68" rx="8" fill="#fff" stroke="#e2e8f0" stroke-width="1.5"/>
    <rect width="150" height="3" rx="1.5" fill="#8b5cf6"/>
    <text x="75" y="30" text-anchor="middle" font-size="13" font-weight="600" fill="#1e293b">export()</text>
    <text x="75" y="50" text-anchor="middle" font-size="11" fill="#64748b">needs node + npm</text>
  </g>

  <!-- Arrow from caller -->
  <g transform="translate(175,110)">
    <line x1="0" y1="0" x2="30" y2="0" stroke="#cbd5e1" stroke-width="1.5"/>
    <polygon points="30,-4 38,0 30,4" fill="#cbd5e1"/>
  </g>

  <!-- Step 1: Local cache -->
  <g transform="translate(220,20)" filter="url(#shadow-nr)">
    <rect width="180" height="180" rx="8" fill="#fff" stroke="#e2e8f0" stroke-width="1.5"/>
    <rect width="180" height="3" rx="1.5" fill="#3b82f6"/>
    <text x="90" y="28" text-anchor="middle" font-size="10" fill="#94a3b8" letter-spacing="1">1. LOCAL CACHE</text>
    <text x="90" y="54" text-anchor="middle" font-size="13" font-weight="600" fill="#1e293b">shinyelectron</text>
    <text x="90" y="72" text-anchor="middle" font-size="13" font-weight="600" fill="#1e293b">managed</text>
    <line x1="20" y1="88" x2="160" y2="88" stroke="#f1f5f9" stroke-width="1"/>
    <text x="90" y="110" text-anchor="middle" font-size="10" fill="#64748b">~/.shinyelectron/</text>
    <text x="90" y="124" text-anchor="middle" font-size="10" fill="#64748b">cache/assets/nodejs/</text>
    <text x="90" y="150" text-anchor="middle" font-size="11" fill="#3b82f6" font-weight="500">install_nodejs()</text>
    <text x="90" y="168" text-anchor="middle" font-size="10" fill="#94a3b8">preferred when present</text>
  </g>

  <!-- Arrow to system -->
  <g transform="translate(405,110)">
    <line x1="0" y1="0" x2="30" y2="0" stroke="#cbd5e1" stroke-width="1.5" stroke-dasharray="4,3"/>
    <polygon points="30,-4 38,0 30,4" fill="#cbd5e1"/>
    <text x="19" y="-10" text-anchor="middle" font-size="9" fill="#94a3b8">if missing</text>
  </g>

  <!-- Step 2: System PATH -->
  <g transform="translate(450,20)" filter="url(#shadow-nr)">
    <rect width="180" height="180" rx="8" fill="#fff" stroke="#e2e8f0" stroke-width="1.5"/>
    <rect width="180" height="3" rx="1.5" fill="#10b981"/>
    <text x="90" y="28" text-anchor="middle" font-size="10" fill="#94a3b8" letter-spacing="1">2. SYSTEM PATH</text>
    <text x="90" y="54" text-anchor="middle" font-size="13" font-weight="600" fill="#1e293b">whatever node</text>
    <text x="90" y="72" text-anchor="middle" font-size="13" font-weight="600" fill="#1e293b">the OS finds</text>
    <line x1="20" y1="88" x2="160" y2="88" stroke="#f1f5f9" stroke-width="1"/>
    <text x="90" y="110" text-anchor="middle" font-size="10" fill="#64748b">/usr/local/bin</text>
    <text x="90" y="124" text-anchor="middle" font-size="10" fill="#64748b">C:\Program Files\</text>
    <text x="90" y="150" text-anchor="middle" font-size="11" fill="#10b981" font-weight="500">installer / nvm / brew</text>
    <text x="90" y="168" text-anchor="middle" font-size="10" fill="#94a3b8">fallback</text>
  </g>

  <!-- Arrow to not found -->
  <g transform="translate(635,110)">
    <line x1="0" y1="0" x2="22" y2="0" stroke="#cbd5e1" stroke-width="1.5" stroke-dasharray="4,3"/>
    <polygon points="22,-4 30,0 22,4" fill="#cbd5e1"/>
  </g>

  <!-- Not found -->
  <g transform="translate(672,76)" filter="url(#shadow-nr)">
    <rect width="72" height="68" rx="8" fill="#fff" stroke="#e2e8f0" stroke-width="1.5"/>
    <rect width="72" height="3" rx="1.5" fill="#f59e0b"/>
    <text x="36" y="30" text-anchor="middle" font-size="11" font-weight="600" fill="#1e293b">error</text>
    <text x="36" y="48" text-anchor="middle" font-size="10" fill="#64748b">not found</text>
  </g>
</svg>
