<svg xmlns="http://www.w3.org/2000/svg" viewBox="0 0 880 272" font-family="'Segoe UI', system-ui, -apple-system, sans-serif" role="img" aria-label="The code signing chain of trust for shinyelectron apps: a certificate from a trusted authority signs the app during export, the signed build is distributed, and the end user's operating system verifies the signature before launching.">
  <defs>
    <filter id="cs-shadow">
      <feDropShadow dx="0" dy="1" stdDeviation="3" flood-opacity="0.07"/>
    </filter>
    <marker id="cs-arrow" viewBox="0 0 10 10" refX="9" refY="5" markerWidth="7" markerHeight="7" orient="auto">
      <path d="M0,0 L10,5 L0,10 z" fill="#94a3b8"/>
    </marker>
  </defs>

  <!-- Section label -->
  <text x="440" y="18" text-anchor="middle" font-size="12" font-weight="700" fill="#64748b" letter-spacing="1">THE CHAIN OF TRUST</text>

  <!-- Stage 1: Certificate -->
  <g transform="translate(20, 34)" filter="url(#cs-shadow)">
    <rect width="180" height="88" rx="10" fill="#fff" stroke="#e2e8f0" stroke-width="1.5"/>
    <rect width="180" height="3" rx="1.5" fill="#3b82f6"/>
    <text x="16" y="22" font-size="11" font-weight="700" fill="#3b82f6" letter-spacing="0.5">1. CERTIFICATE</text>
    <line x1="16" y1="30" x2="164" y2="30" stroke="#f1f5f9" stroke-width="1"/>
    <text x="16" y="50" font-size="12" font-weight="600" fill="#1e293b">Issued by a CA</text>
    <text x="16" y="66" font-size="11" fill="#475569">Apple, DigiCert,</text>
    <text x="16" y="80" font-size="11" fill="#475569">Sectigo, or GPG.</text>
  </g>

  <!-- Arrow 1 -->
  <path d="M 208 78 L 236 78" stroke="#cbd5e1" stroke-width="1.5" fill="none" marker-end="url(#cs-arrow)"/>

  <!-- Stage 2: Signing -->
  <g transform="translate(240, 34)" filter="url(#cs-shadow)">
    <rect width="180" height="88" rx="10" fill="#fff" stroke="#e2e8f0" stroke-width="1.5"/>
    <rect width="180" height="3" rx="1.5" fill="#8b5cf6"/>
    <text x="16" y="22" font-size="11" font-weight="700" fill="#8b5cf6" letter-spacing="0.5">2. SIGNING</text>
    <line x1="16" y1="30" x2="164" y2="30" stroke="#f1f5f9" stroke-width="1"/>
    <text x="16" y="50" font-size="12" font-weight="600" fill="#1e293b" font-family="'SF Mono', Menlo, Consolas, monospace">sign = TRUE</text>
    <text x="16" y="66" font-size="11" fill="#475569">electron-builder</text>
    <text x="16" y="80" font-size="11" fill="#475569">stamps the build.</text>
  </g>

  <!-- Arrow 2 -->
  <path d="M 428 78 L 456 78" stroke="#cbd5e1" stroke-width="1.5" fill="none" marker-end="url(#cs-arrow)"/>

  <!-- Stage 3: Signed build -->
  <g transform="translate(460, 34)" filter="url(#cs-shadow)">
    <rect width="180" height="88" rx="10" fill="#fff" stroke="#e2e8f0" stroke-width="1.5"/>
    <rect width="180" height="3" rx="1.5" fill="#10b981"/>
    <text x="16" y="22" font-size="11" font-weight="700" fill="#10b981" letter-spacing="0.5">3. SIGNED BUILD</text>
    <line x1="16" y1="30" x2="164" y2="30" stroke="#f1f5f9" stroke-width="1"/>
    <text x="16" y="50" font-size="12" font-weight="600" fill="#1e293b">.app / .exe / AppImage</text>
    <text x="16" y="66" font-size="11" fill="#475569">Cryptographic signature</text>
    <text x="16" y="80" font-size="11" fill="#475569">embedded in the artifact.</text>
  </g>

  <!-- Arrow 3 -->
  <path d="M 648 78 L 676 78" stroke="#cbd5e1" stroke-width="1.5" fill="none" marker-end="url(#cs-arrow)"/>

  <!-- Stage 4: User opens -->
  <g transform="translate(680, 34)" filter="url(#cs-shadow)">
    <rect width="180" height="88" rx="10" fill="#fff" stroke="#e2e8f0" stroke-width="1.5"/>
    <rect width="180" height="3" rx="1.5" fill="#f59e0b"/>
    <text x="16" y="22" font-size="11" font-weight="700" fill="#f59e0b" letter-spacing="0.5">4. USER OS</text>
    <line x1="16" y1="30" x2="164" y2="30" stroke="#f1f5f9" stroke-width="1"/>
    <text x="16" y="50" font-size="12" font-weight="600" fill="#1e293b">Opens cleanly</text>
    <text x="16" y="66" font-size="11" fill="#475569">OS checks the chain,</text>
    <text x="16" y="80" font-size="11" fill="#475569">no warning dialog.</text>
  </g>

  <!-- Platform strip -->
  <g transform="translate(20, 134)" filter="url(#cs-shadow)">
    <rect width="840" height="124" rx="10" fill="#fff" stroke="#e2e8f0" stroke-width="1.5"/>
    <rect width="840" height="3" rx="1.5" fill="#64748b"/>

    <text x="20" y="28" font-size="11" font-weight="700" fill="#64748b" letter-spacing="0.5">WHAT THIS LOOKS LIKE PER PLATFORM</text>
    <line x1="20" y1="38" x2="820" y2="38" stroke="#f1f5f9" stroke-width="1"/>

    <!-- Column dividers (three even columns) -->
    <line x1="280" y1="48" x2="280" y2="112" stroke="#f1f5f9" stroke-width="1"/>
    <line x1="560" y1="48" x2="560" y2="112" stroke="#f1f5f9" stroke-width="1"/>

    <!-- macOS column -->
    <g transform="translate(28, 56)">
      <circle cx="6" cy="6" r="4" fill="#3b82f6"/>
      <text x="18" y="10" font-size="13" font-weight="700" fill="#1e293b">macOS</text>
      <text x="78" y="10" font-size="10" fill="#94a3b8">$99 / year</text>
      <text x="0" y="32" font-size="11" fill="#475569">Apple Developer ID plus notarization.</text>
      <text x="0" y="54" font-size="11" font-weight="600" fill="#991b1b">Without signing: Gatekeeper blocks.</text>
    </g>

    <!-- Windows column -->
    <g transform="translate(308, 56)">
      <circle cx="6" cy="6" r="4" fill="#8b5cf6"/>
      <text x="18" y="10" font-size="13" font-weight="700" fill="#1e293b">Windows</text>
      <text x="88" y="10" font-size="10" fill="#94a3b8">$200 to $700 / year</text>
      <text x="0" y="32" font-size="11" fill="#475569">OV or EV cert from a commercial CA.</text>
      <text x="0" y="54" font-size="11" font-weight="600" fill="#991b1b">Without signing: SmartScreen warns.</text>
    </g>

    <!-- Linux column -->
    <g transform="translate(588, 56)">
      <circle cx="6" cy="6" r="4" fill="#10b981"/>
      <text x="18" y="10" font-size="13" font-weight="700" fill="#1e293b">Linux</text>
      <text x="62" y="10" font-size="10" fill="#94a3b8">free</text>
      <text x="0" y="32" font-size="11" fill="#475569">A GPG key. Optional; most users skip.</text>
      <text x="0" y="54" font-size="11" font-weight="600" fill="#92400e">Without signing: no OS warning.</text>
    </g>
  </g>
</svg>
