<svg xmlns="http://www.w3.org/2000/svg" viewBox="0 0 840 420" font-family="'Segoe UI', system-ui, -apple-system, sans-serif" role="img" aria-label="Five-row matrix comparing the shinylive, bundled, auto-download, system, and container runtime strategies across three columns: what ships in the exported package, what happens on first launch, and the running architecture">
  <defs>
    <filter id="sc-shadow">
      <feDropShadow dx="0" dy="1" stdDeviation="3" flood-opacity="0.07"/>
    </filter>
  </defs>

  <!-- Column headers -->
  <g transform="translate(0,24)">
    <text x="110" y="16" text-anchor="middle" font-size="11" font-weight="600" fill="#64748b" letter-spacing="0.8">STRATEGY</text>
    <text x="310" y="16" text-anchor="middle" font-size="11" font-weight="600" fill="#1e293b" letter-spacing="0.6">SHIPS</text>
    <text x="310" y="32" text-anchor="middle" font-size="9" fill="#94a3b8">inside the exported package</text>
    <text x="525" y="16" text-anchor="middle" font-size="11" font-weight="600" fill="#1e293b" letter-spacing="0.6">FIRST LAUNCH</text>
    <text x="525" y="32" text-anchor="middle" font-size="9" fill="#94a3b8">what happens on first open</text>
    <text x="740" y="16" text-anchor="middle" font-size="11" font-weight="600" fill="#1e293b" letter-spacing="0.6">RUNNING</text>
    <text x="740" y="32" text-anchor="middle" font-size="9" fill="#94a3b8">steady-state architecture</text>
  </g>

  <!-- Divider under headers -->
  <line x1="24" y1="66" x2="816" y2="66" stroke="#e2e8f0" stroke-width="1"/>

  <!-- Row: shinylive -->
  <g transform="translate(0,78)">
    <!-- Row label card -->
    <g transform="translate(24,0)" filter="url(#sc-shadow)">
      <rect width="180" height="56" rx="8" fill="#fff" stroke="#e2e8f0" stroke-width="1.5"/>
      <rect width="4" height="56" rx="2" fill="#3b82f6"/>
      <text x="100" y="24" text-anchor="middle" font-size="13" font-weight="600" fill="#2563eb">shinylive</text>
      <text x="100" y="42" text-anchor="middle" font-size="10" fill="#94a3b8">WebR or Pyodide</text>
    </g>

    <!-- Ships cell -->
    <g transform="translate(220,0)" filter="url(#sc-shadow)">
      <rect width="190" height="56" rx="8" fill="#fff" stroke="#e2e8f0" stroke-width="1.5"/>
      <g transform="translate(14,16)">
        <rect width="22" height="22" rx="4" fill="#dbeafe" stroke="#93c5fd" stroke-width="0.75"/>
        <text x="11" y="16" text-anchor="middle" font-size="10" font-weight="700" fill="#2563eb">W</text>
      </g>
      <text x="48" y="26" font-size="11" font-weight="500" fill="#1e293b">Electron + WASM</text>
      <text x="48" y="40" font-size="10" fill="#64748b">bundle</text>
    </g>

    <!-- First launch cell -->
    <g transform="translate(430,0)" filter="url(#sc-shadow)">
      <rect width="190" height="56" rx="8" fill="#fff" stroke="#e2e8f0" stroke-width="1.5"/>
      <g transform="translate(14,18)">
        <circle cx="10" cy="10" r="9" fill="#f0fdf4" stroke="#86efac" stroke-width="1"/>
        <path d="M 5 10 L 9 14 L 15 7" stroke="#16a34a" stroke-width="1.5" fill="none" stroke-linecap="round" stroke-linejoin="round"/>
      </g>
      <text x="46" y="26" font-size="11" font-weight="500" fill="#1e293b">Opens offline</text>
      <text x="46" y="40" font-size="10" fill="#64748b">no network needed</text>
    </g>

    <!-- Running cell -->
    <g transform="translate(640,0)" filter="url(#sc-shadow)">
      <rect width="190" height="56" rx="8" fill="#fff" stroke="#e2e8f0" stroke-width="1.5"/>
      <g transform="translate(14,18)">
        <rect width="20" height="20" rx="3" fill="#fff" stroke="#cbd5e1" stroke-width="1"/>
        <rect width="20" height="6" rx="3" fill="#eff6ff"/>
        <circle cx="4" cy="3" r="1" fill="#cbd5e1"/>
      </g>
      <text x="44" y="26" font-size="11" font-weight="500" fill="#1e293b">Browser runs app</text>
      <text x="44" y="40" font-size="10" fill="#64748b">no child process</text>
    </g>
  </g>

  <!-- Row: bundled -->
  <g transform="translate(0,146)">
    <g transform="translate(24,0)" filter="url(#sc-shadow)">
      <rect width="180" height="56" rx="8" fill="#fff" stroke="#e2e8f0" stroke-width="1.5"/>
      <rect width="4" height="56" rx="2" fill="#8b5cf6"/>
      <text x="100" y="24" text-anchor="middle" font-size="13" font-weight="600" fill="#6d28d9">bundled</text>
      <text x="100" y="42" text-anchor="middle" font-size="10" fill="#94a3b8">portable runtime inside</text>
    </g>

    <g transform="translate(220,0)" filter="url(#sc-shadow)">
      <rect width="190" height="56" rx="8" fill="#fff" stroke="#e2e8f0" stroke-width="1.5"/>
      <g transform="translate(14,16)">
        <rect width="22" height="22" rx="4" fill="#f5f3ff" stroke="#c4b5fd" stroke-width="0.75"/>
        <text x="11" y="16" text-anchor="middle" font-size="9" font-weight="700" fill="#6d28d9">R/P</text>
      </g>
      <text x="48" y="26" font-size="11" font-weight="500" fill="#1e293b">Electron + portable</text>
      <text x="48" y="40" font-size="10" fill="#64748b">R or Python</text>
    </g>

    <g transform="translate(430,0)" filter="url(#sc-shadow)">
      <rect width="190" height="56" rx="8" fill="#fff" stroke="#e2e8f0" stroke-width="1.5"/>
      <g transform="translate(14,18)">
        <circle cx="10" cy="10" r="9" fill="#f0fdf4" stroke="#86efac" stroke-width="1"/>
        <path d="M 5 10 L 9 14 L 15 7" stroke="#16a34a" stroke-width="1.5" fill="none" stroke-linecap="round" stroke-linejoin="round"/>
      </g>
      <text x="46" y="26" font-size="11" font-weight="500" fill="#1e293b">Opens offline</text>
      <text x="46" y="40" font-size="10" fill="#64748b">nothing to fetch</text>
    </g>

    <g transform="translate(640,0)" filter="url(#sc-shadow)">
      <rect width="190" height="56" rx="8" fill="#fff" stroke="#e2e8f0" stroke-width="1.5"/>
      <g transform="translate(14,20)">
        <rect width="9" height="16" rx="2" fill="#f5f3ff" stroke="#c4b5fd" stroke-width="0.75"/>
        <rect x="14" y="0" width="9" height="16" rx="2" fill="#ede9fe" stroke="#c4b5fd" stroke-width="0.75"/>
        <line x1="10" y1="8" x2="13" y2="8" stroke="#8b5cf6" stroke-width="1.2"/>
      </g>
      <text x="48" y="26" font-size="11" font-weight="500" fill="#1e293b">Spawns bundled</text>
      <text x="48" y="40" font-size="10" fill="#64748b">runtime process</text>
    </g>
  </g>

  <!-- Row: auto-download -->
  <g transform="translate(0,214)">
    <g transform="translate(24,0)" filter="url(#sc-shadow)">
      <rect width="180" height="56" rx="8" fill="#fff" stroke="#e2e8f0" stroke-width="1.5"/>
      <rect width="4" height="56" rx="2" fill="#10b981"/>
      <text x="100" y="24" text-anchor="middle" font-size="13" font-weight="600" fill="#047857">auto-download</text>
      <text x="100" y="42" text-anchor="middle" font-size="10" fill="#94a3b8">fetch + cache runtime</text>
    </g>

    <g transform="translate(220,0)" filter="url(#sc-shadow)">
      <rect width="190" height="56" rx="8" fill="#fff" stroke="#e2e8f0" stroke-width="1.5"/>
      <g transform="translate(14,18)">
        <path d="M 10 2 L 10 14 M 5 10 L 10 15 L 15 10" stroke="#047857" stroke-width="1.5" fill="none" stroke-linecap="round" stroke-linejoin="round"/>
        <rect x="2" y="17" width="16" height="2" rx="1" fill="#10b981"/>
      </g>
      <text x="44" y="26" font-size="11" font-weight="500" fill="#1e293b">Electron + small</text>
      <text x="44" y="40" font-size="10" fill="#64748b">downloader stub</text>
    </g>

    <g transform="translate(430,0)" filter="url(#sc-shadow)">
      <rect width="190" height="56" rx="8" fill="#fff" stroke="#e2e8f0" stroke-width="1.5"/>
      <g transform="translate(14,18)">
        <circle cx="10" cy="10" r="9" fill="#ecfdf5" stroke="#6ee7b7" stroke-width="1"/>
        <path d="M 10 4 L 10 10 L 14 12" stroke="#047857" stroke-width="1.5" fill="none" stroke-linecap="round"/>
      </g>
      <text x="46" y="26" font-size="11" font-weight="500" fill="#1e293b">Fetch + cache</text>
      <text x="46" y="40" font-size="10" fill="#64748b">runtime, one time</text>
    </g>

    <g transform="translate(640,0)" filter="url(#sc-shadow)">
      <rect width="190" height="56" rx="8" fill="#fff" stroke="#e2e8f0" stroke-width="1.5"/>
      <g transform="translate(14,20)">
        <rect width="9" height="16" rx="2" fill="#ecfdf5" stroke="#6ee7b7" stroke-width="0.75"/>
        <rect x="16" y="0" width="9" height="16" rx="2" fill="#d1fae5" stroke="#6ee7b7" stroke-width="0.75"/>
        <text x="21" y="11" text-anchor="middle" font-size="5" fill="#047857">cache</text>
      </g>
      <text x="50" y="26" font-size="11" font-weight="500" fill="#1e293b">Spawns cached</text>
      <text x="50" y="40" font-size="10" fill="#64748b">runtime process</text>
    </g>
  </g>

  <!-- Row: system -->
  <g transform="translate(0,282)">
    <g transform="translate(24,0)" filter="url(#sc-shadow)">
      <rect width="180" height="56" rx="8" fill="#fff" stroke="#e2e8f0" stroke-width="1.5"/>
      <rect width="4" height="56" rx="2" fill="#f59e0b"/>
      <text x="100" y="24" text-anchor="middle" font-size="13" font-weight="600" fill="#b45309">system</text>
      <text x="100" y="42" text-anchor="middle" font-size="10" fill="#94a3b8">user's own install</text>
    </g>

    <g transform="translate(220,0)" filter="url(#sc-shadow)">
      <rect width="190" height="56" rx="8" fill="#fff" stroke="#e2e8f0" stroke-width="1.5"/>
      <g transform="translate(14,16)">
        <rect width="22" height="22" rx="4" fill="#fffbeb" stroke="#fcd34d" stroke-width="0.75"/>
        <text x="11" y="16" text-anchor="middle" font-size="9" font-weight="700" fill="#b45309">E</text>
      </g>
      <text x="48" y="26" font-size="11" font-weight="500" fill="#1e293b">Electron only</text>
      <text x="48" y="40" font-size="10" fill="#64748b">no runtime embedded</text>
    </g>

    <g transform="translate(430,0)" filter="url(#sc-shadow)">
      <rect width="190" height="56" rx="8" fill="#fff" stroke="#e2e8f0" stroke-width="1.5"/>
      <g transform="translate(14,18)">
        <circle cx="8" cy="8" r="6" fill="none" stroke="#b45309" stroke-width="1.5"/>
        <line x1="12" y1="12" x2="17" y2="17" stroke="#b45309" stroke-width="1.5" stroke-linecap="round"/>
      </g>
      <text x="46" y="26" font-size="11" font-weight="500" fill="#1e293b">Find Rscript or</text>
      <text x="46" y="40" font-size="10" fill="#64748b">python3 on PATH</text>
    </g>

    <g transform="translate(640,0)" filter="url(#sc-shadow)">
      <rect width="190" height="56" rx="8" fill="#fff" stroke="#e2e8f0" stroke-width="1.5"/>
      <g transform="translate(14,20)">
        <rect width="9" height="16" rx="2" fill="#fffbeb" stroke="#fcd34d" stroke-width="0.75"/>
        <rect x="16" y="0" width="9" height="16" rx="2" fill="#fef3c7" stroke="#fcd34d" stroke-width="0.75"/>
        <text x="21" y="11" text-anchor="middle" font-size="5" fill="#b45309">host</text>
      </g>
      <text x="50" y="26" font-size="11" font-weight="500" fill="#1e293b">Spawns system</text>
      <text x="50" y="40" font-size="10" fill="#64748b">runtime process</text>
    </g>
  </g>

  <!-- Row: container -->
  <g transform="translate(0,350)">
    <g transform="translate(24,0)" filter="url(#sc-shadow)">
      <rect width="180" height="56" rx="8" fill="#fff" stroke="#e2e8f0" stroke-width="1.5"/>
      <rect width="4" height="56" rx="2" fill="#64748b"/>
      <text x="100" y="24" text-anchor="middle" font-size="13" font-weight="600" fill="#334155">container</text>
      <text x="100" y="42" text-anchor="middle" font-size="10" fill="#94a3b8">Docker or Podman</text>
    </g>

    <g transform="translate(220,0)" filter="url(#sc-shadow)">
      <rect width="190" height="56" rx="8" fill="#fff" stroke="#e2e8f0" stroke-width="1.5"/>
      <g transform="translate(14,16)">
        <rect width="22" height="22" rx="4" fill="#f1f5f9" stroke="#cbd5e1" stroke-width="0.75" stroke-dasharray="2,1.5"/>
        <text x="11" y="16" text-anchor="middle" font-size="9" font-weight="700" fill="#475569">yml</text>
      </g>
      <text x="48" y="26" font-size="11" font-weight="500" fill="#1e293b">Electron +</text>
      <text x="48" y="40" font-size="10" fill="#64748b">container config</text>
    </g>

    <g transform="translate(430,0)" filter="url(#sc-shadow)">
      <rect width="190" height="56" rx="8" fill="#fff" stroke="#e2e8f0" stroke-width="1.5"/>
      <g transform="translate(14,18)">
        <rect width="20" height="14" rx="2" fill="#f1f5f9" stroke="#cbd5e1" stroke-width="0.75" stroke-dasharray="2,1.5"/>
        <path d="M 10 6 L 10 12 M 7 9 L 10 12 L 13 9" stroke="#334155" stroke-width="1.2" fill="none" stroke-linecap="round"/>
      </g>
      <text x="46" y="26" font-size="11" font-weight="500" fill="#1e293b">Pull image,</text>
      <text x="46" y="40" font-size="10" fill="#64748b">start container</text>
    </g>

    <g transform="translate(640,0)" filter="url(#sc-shadow)">
      <rect width="190" height="56" rx="8" fill="#fff" stroke="#e2e8f0" stroke-width="1.5"/>
      <g transform="translate(14,20)">
        <rect width="9" height="16" rx="2" fill="#f1f5f9" stroke="#cbd5e1" stroke-width="0.75"/>
        <text x="4.5" y="11" text-anchor="middle" font-size="5" fill="#475569">host</text>
        <rect x="14" y="0" width="12" height="16" rx="2" fill="#f8fafc" stroke="#cbd5e1" stroke-width="0.75" stroke-dasharray="2,1"/>
        <text x="20" y="11" text-anchor="middle" font-size="5" fill="#475569">ctnr</text>
      </g>
      <text x="52" y="26" font-size="11" font-weight="500" fill="#1e293b">Electron to</text>
      <text x="52" y="40" font-size="10" fill="#64748b">localhost to container</text>
    </g>
  </g>
</svg>
