<svg xmlns="http://www.w3.org/2000/svg" viewBox="0 0 760 160" font-family="'Segoe UI', system-ui, -apple-system, sans-serif" role="img" aria-label="Export pipeline: Shiny App passes through shinyelectron to produce a Desktop App">
  <defs>
    <filter id="shadow">
      <feDropShadow dx="0" dy="1" stdDeviation="3" flood-opacity="0.07"/>
    </filter>
  </defs>

  <!-- Step 1: Shiny App -->
  <g transform="translate(20,20)" filter="url(#shadow)">
    <rect width="180" height="120" rx="8" fill="#fff" stroke="#e2e8f0" stroke-width="1.5"/>
    <rect width="180" height="3" rx="1.5" fill="#3b82f6"/>
    <text x="90" y="40" text-anchor="middle" font-size="14" font-weight="600" fill="#1e293b">Shiny App</text>
    <text x="90" y="62" text-anchor="middle" font-size="12" fill="#64748b">app.R or app.py</text>
    <line x1="30" y1="78" x2="150" y2="78" stroke="#f1f5f9" stroke-width="1"/>
    <text x="90" y="100" text-anchor="middle" font-size="11" fill="#94a3b8">R or Python</text>
  </g>

  <!-- Arrow 1 -->
  <g transform="translate(215,72)">
    <line x1="0" y1="0" x2="60" y2="0" stroke="#cbd5e1" stroke-width="1.5" stroke-dasharray="4,3"/>
    <polygon points="60,-4 68,0 60,4" fill="#cbd5e1"/>
  </g>

  <!-- Step 2: shinyelectron -->
  <g transform="translate(298,20)" filter="url(#shadow)">
    <rect width="180" height="120" rx="8" fill="#fff" stroke="#e2e8f0" stroke-width="1.5"/>
    <rect width="180" height="3" rx="1.5" fill="#8b5cf6"/>
    <text x="90" y="40" text-anchor="middle" font-size="14" font-weight="600" fill="#1e293b">shinyelectron</text>
    <text x="90" y="62" text-anchor="middle" font-size="12" fill="#64748b">Convert + Package</text>
    <line x1="30" y1="78" x2="150" y2="78" stroke="#f1f5f9" stroke-width="1"/>
    <text x="90" y="100" text-anchor="middle" font-size="11" fill="#94a3b8">electron-builder</text>
  </g>

  <!-- Arrow 2 -->
  <g transform="translate(493,72)">
    <line x1="0" y1="0" x2="60" y2="0" stroke="#cbd5e1" stroke-width="1.5" stroke-dasharray="4,3"/>
    <polygon points="60,-4 68,0 60,4" fill="#cbd5e1"/>
    <text x="34" y="-8" text-anchor="middle" font-size="10" fill="#94a3b8">export()</text>
  </g>

  <!-- Step 3: Desktop App -->
  <g transform="translate(576,20)" filter="url(#shadow)">
    <rect width="164" height="120" rx="8" fill="#fff" stroke="#e2e8f0" stroke-width="1.5"/>
    <rect width="164" height="3" rx="1.5" fill="#10b981"/>
    <text x="82" y="36" text-anchor="middle" font-size="14" font-weight="600" fill="#1e293b">Desktop App</text>
    <!-- Mini window -->
    <g transform="translate(32,46)">
      <rect width="100" height="56" rx="4" fill="#fff" stroke="#e2e8f0" stroke-width="1"/>
      <rect width="100" height="12" rx="4" fill="#f8fafc"/>
      <circle cx="8" cy="6" r="2" fill="#f87171"/>
      <circle cx="15" cy="6" r="2" fill="#fbbf24"/>
      <circle cx="22" cy="6" r="2" fill="#34d399"/>
      <rect x="8" y="18" width="34" height="3" rx="1" fill="#e2e8f0"/>
      <rect x="8" y="25" width="80" height="3" rx="1" fill="#e2e8f0"/>
      <rect x="8" y="32" width="56" height="3" rx="1" fill="#e2e8f0"/>
      <rect x="8" y="41" width="36" height="7" rx="2" fill="#3b82f6" opacity="0.15"/>
    </g>
    <text x="82" y="114" text-anchor="middle" font-size="10" fill="#94a3b8">.app | .exe | AppImage</text>
  </g>
</svg>
